<?xml version="1.0" standalone="no"?>
<!DOCTYPE svg PUBLIC "-//W3C//DTD SVG 20010904//EN"
 "http://www.w3.org/TR/2001/REC-SVG-20010904/DTD/svg10.dtd">
<svg version="1.0" xmlns="http://www.w3.org/2000/svg"
 width="172.000000pt" height="172.000000pt" viewBox="0 0 172.000000 172.000000"
 preserveAspectRatio="xMidYMid meet">

<g transform="translate(0.000000,172.000000) scale(0.100000,-0.100000)"
fill="#000000" stroke="none">
<path d="M889 1432 c-94 -35 -143 -74 -206 -161 -1 -2 -29 2 -61 9 -50 10 -68
10 -113 -3 -94 -28 -172 -106 -185 -187 -5 -33 -10 -38 -67 -59 -70 -28 -133
-87 -169 -158 -34 -71 -33 -197 3 -273 30 -65 85 -121 149 -152 42 -22 60 -23
270 -26 l225 -3 -30 25 c-29 25 -34 25 -191 26 -194 0 -245 12 -311 73 -62 56
-86 113 -85 198 0 55 5 78 29 120 34 64 100 114 169 130 51 12 52 12 58 55 19
142 162 225 281 164 22 -11 40 -20 42 -20 1 0 18 24 38 54 68 103 157 151 280
149 96 0 153 -22 221 -85 67 -61 97 -126 103 -222 l6 -79 55 -12 c72 -14 108
-35 153 -84 45 -50 72 -134 64 -203 -8 -61 -51 -143 -94 -175 -67 -51 -120
-63 -286 -63 -147 0 -153 -1 -182 -25 l-30 -24 191 -1 c221 0 266 9 343 70 74
58 111 141 111 247 0 69 -4 88 -31 141 -39 79 -101 134 -178 158 l-59 19 -6
59 c-13 124 -96 240 -214 298 -56 28 -77 33 -156 35 -67 2 -103 -2 -137 -15z"/>
<path d="M898 1290 c-47 -37 -70 -110 -69 -227 l0 -104 -64 -60 c-83 -78 -115
-141 -115 -227 0 -50 6 -75 25 -111 42 -76 134 -127 215 -119 47 4 48 2 56
-96 6 -62 4 -74 -15 -97 -11 -15 -32 -29 -47 -32 -48 -9 -89 14 -44 26 20 5
36 47 27 71 -3 8 -17 22 -30 31 -36 23 -75 10 -95 -31 -14 -31 -14 -37 1 -70
32 -65 147 -85 202 -34 42 40 50 72 36 162 -7 44 -11 81 -9 82 37 22 82 64 94
88 23 45 20 121 -7 165 -24 38 -85 72 -131 73 -24 0 -27 4 -33 50 -7 48 -5 51
39 107 25 32 52 78 61 102 29 84 14 202 -32 253 -21 23 -34 23 -65 -2z m70
-109 c7 -46 -9 -89 -49 -135 -22 -25 -45 -43 -51 -40 -13 8 -3 115 13 147 31
60 81 76 87 28z m-106 -368 c4 -34 1 -41 -33 -71 -52 -45 -67 -96 -44 -146 18
-37 60 -74 71 -63 4 3 -3 18 -15 33 -11 15 -21 37 -21 49 0 22 41 75 58 75 9
0 51 -200 45 -212 -7 -13 -72 -9 -111 8 -109 45 -139 143 -76 251 22 38 98
113 115 113 4 0 9 -17 11 -37z m135 -145 c44 -41 37 -130 -13 -163 -29 -18
-28 -20 -44 80 -6 39 -14 81 -17 94 -5 22 -4 23 23 17 16 -4 39 -17 51 -28z"/>
</g>
</svg>
