<svg version="1.0" xmlns="http://www.w3.org/2000/svg" width="184.000000pt" height="184.000000pt" viewBox="0 0 184.000000 184.000000" preserveAspectRatio="xMidYMid meet">
  <g transform="matrix(0.304036, 0, 0, -0.304036, -192.806409, 169.479063)" fill="#000000" stroke="none" style="">
    <path d="M697 453 c-4 -3 -7 -78 -7 -165 l0 -158 250 0 250 0 0 149 c0 82 -3
156 -6 165 -5 14 -36 16 -243 16 -131 0 -241 -3 -244 -7z m453 -158 l0 -135
-215 0 -215 0 0 128 c0 71 3 132 7 135 3 4 100 7 215 7 l208 0 0 -135z"></path>
    <path d="M 642 88 C 657 65 660 65 935 62 C 1216 60 1234.003 68.748 1234.003 102.748 C 1234.003 113.748 1215 110 1121 110 C 1052 110 999 106 995 100 C 987 87 883 87 875 100 C 871 106 818 110 748 110 C 748 110 672.739 122.572 642.245 109.25 C 634.279 105.77 642 88 642 88 Z"></path>
  </g>
</svg>