<?xml version="1.0" standalone="no"?>
<!DOCTYPE svg PUBLIC "-//W3C//DTD SVG 20010904//EN"
 "http://www.w3.org/TR/2001/REC-SVG-20010904/DTD/svg10.dtd">
<svg version="1.0" xmlns="http://www.w3.org/2000/svg"
 width="168.000000pt" height="168.000000pt" viewBox="0 0 168.000000 168.000000"
 preserveAspectRatio="xMidYMid meet">

<g transform="translate(0.000000,168.000000) scale(0.100000,-0.100000)"
fill="#000000" stroke="none">
<path d="M805 1604 c-33 -18 -214 -119 -405 -228 -176 -99 -170 -91 -170 -226
0 -97 2 -112 20 -130 11 -11 25 -20 31 -20 6 0 -3 -13 -20 -29 -31 -29 -31
-29 -31 -135 0 -100 2 -108 25 -131 l24 -25 -24 -25 c-23 -22 -25 -31 -25
-125 0 -56 5 -110 10 -120 11 -21 35 -36 360 -221 162 -92 224 -122 250 -122
26 0 83 27 225 108 105 60 226 128 270 152 121 67 125 73 125 199 0 99 -1 106
-25 130 l-25 25 22 19 c21 17 23 28 26 129 4 107 3 111 -22 136 l-25 25 24 25
c23 23 25 31 25 132 0 79 -4 114 -14 129 -8 12 -55 44 -103 71 -360 206 -466
264 -490 268 -16 3 -41 -2 -58 -11z m215 -122 c85 -49 201 -114 257 -146 56
-31 105 -60 107 -65 3 -5 -40 -34 -97 -66 -56 -32 -167 -95 -247 -140 -80 -45
-155 -88 -168 -94 -21 -11 -36 -5 -145 57 -67 39 -145 83 -172 99 -252 142
-246 137 -228 150 9 7 113 67 232 134 119 67 230 130 246 140 17 10 37 19 45
19 8 0 85 -40 170 -88z m-531 -373 c108 -61 229 -130 269 -152 l72 -41 0 -89
c0 -49 -3 -87 -8 -85 -10 4 -491 277 -519 295 -21 12 -23 21 -23 98 0 47 3 85
6 85 4 0 95 -50 203 -111z m929 24 l-3 -87 -265 -152 c-146 -83 -269 -148
-273 -144 -4 4 -7 42 -5 86 l3 79 60 36 c33 19 89 52 125 71 36 20 128 72 205
116 77 45 144 81 148 82 4 0 6 -39 5 -87z m-894 -355 c127 -72 248 -141 269
-152 l37 -20 0 -88 0 -88 -47 24 c-27 14 -149 83 -273 153 l-225 129 -3 87
c-1 48 0 87 4 87 3 0 110 -59 238 -132z m894 45 l-3 -87 -115 -66 c-210 -121
-422 -240 -426 -240 -2 0 -4 39 -4 88 l1 87 267 152 c147 84 271 152 275 153
4 0 6 -39 5 -87z m-980 -306 c70 -41 147 -85 172 -99 25 -14 72 -40 105 -58
120 -67 115 -60 115 -156 0 -46 -2 -84 -5 -84 -4 0 -77 41 -390 219 l-150 86
-3 89 c-2 78 -1 88 13 82 9 -3 74 -39 143 -79z m980 -4 l-3 -87 -105 -62
c-163 -95 -429 -244 -435 -244 -3 0 -4 39 -3 87 l3 87 265 153 c146 84 269
152 273 153 4 0 6 -39 5 -87z"/>
<path d="M775 1431 c-50 -13 -128 -51 -152 -73 -45 -42 -18 -70 32 -33 67 50
96 59 190 60 93 0 125 -10 212 -66 30 -19 34 -19 39 -5 17 44 -116 115 -225
121 -36 2 -79 1 -96 -4z"/>
<path d="M766 1325 c-50 -17 -90 -47 -94 -69 -5 -24 23 -20 74 10 63 37 144
37 209 1 26 -15 54 -27 62 -27 25 0 10 33 -26 57 -64 44 -152 54 -225 28z"/>
<path d="M810 1238 c-39 -11 -70 -35 -70 -54 0 -21 23 -22 58 -1 34 20 62 19
119 -4 36 -15 53 -6 37 19 -22 35 -91 55 -144 40z"/>
<path d="M814 1115 c-7 -29 10 -55 36 -55 26 0 43 26 36 55 -5 20 -13 25 -36
25 -23 0 -31 -5 -36 -25z"/>
</g>
</svg>
