<svg viewBox="0 0 187.79515 187.79515" width="187.79515" height="187.79515" xmlns="http://www.w3.org/2000/svg">
  <path style="" d="M 128.645 154.278 C 139.435 148.213 148.028 139.752 154.138 129.937 C 152.383 131.176 150.548 132.338 148.634 133.414 C 118.447 150.383 80.219 139.666 63.251 109.48 C 46.283 79.293 56.999 41.065 87.185 24.097 C 89.099 23.021 91.046 22.057 93.017 21.202 C 81.457 21.32 69.761 24.263 58.971 30.328 C 24.744 49.567 12.592 92.914 31.833 127.139 C 51.073 161.365 94.419 173.518 128.645 154.28 Z" id="path3"></path>
  <polygon style="" points="112 88.996 103.958 81.155 115.068 79.543 120.043 69.472 125.009 79.543 136.123 81.155 128.081 88.996 129.979 100.062 120.043 94.838 110.102 100.062" id="polygon5"></polygon>
  <polygon style="" points="144.541 98.744 140.463 94.768 146.1 93.95 148.619 88.841 151.139 93.95 156.776 94.768 152.698 98.744 153.659 104.357 148.619 101.706 143.58 104.357" id="polygon7"></polygon>
  <polygon style="" points="84.34 63.86 80.266 59.884 85.899 59.066 88.422 53.957 90.942 59.066 96.579 59.884 92.497 63.86 93.462 69.472 88.422 66.821 83.379 69.472" id="polygon9"></polygon>
</svg>