<svg viewBox="0 0 372.537 365.148" width="372.537" height="365.148" xmlns="http://www.w3.org/2000/svg" xmlns:bx="https://boxy-svg.com">
  <g style="filter: none;">
    <bx:title>Signal</bx:title>
    <path style="fill: rgb(55, 185, 76);" transform="matrix(0.244919, 0.377142, -0.377142, 0.244919, 365.66568, -24.490297)" d="M -263.733 785 A 728.733 728.733 0 0 1 181.538 113.657 L 465 785 Z" bx:shape="pie 465 785 0 728.733 270 337.109 1@620f0612"></path>
    <path style="fill: rgb(58, 230, 23);" transform="matrix(0.244919, 0.377142, -0.377142, 0.244919, 365.592072, -24.234922)" d="M -118.751 785 A 583.751 583.751 0 0 1 237.933 247.222 L 465 785 Z" bx:shape="pie 465 785 0 583.751 270 337.109 1@fcc67265"></path>
    <path style="fill: rgb(216, 216, 216);" transform="matrix(0.244919, 0.377142, -0.377142, 0.244919, 365.611237, -23.887856)" d="M 25.388 785 A 439.612 439.612 0 0 1 294 380.009 L 465 785 Z" bx:shape="pie 465 785 0 439.612 270 337.109 1@3f2ddc6a"></path>
  </g>
  <path style="stroke: rgb(0, 0, 0); fill: rgb(255, 255, 255); stroke-linecap: round; stroke-width: 24px;" d="M 119.614 267.95 C 149.569 343.789 328.594 342.736 356.983 267.95 C 326.356 189.939 148.654 184.453 119.614 267.95 Z"></path>
  <ellipse style="stroke: rgb(0, 0, 0);" cx="240.747" cy="266.436" rx="49.952" ry="48.19"></ellipse>
</svg>