<svg version="1.0" xmlns="http://www.w3.org/2000/svg" width="184.000000pt" height="184.000000pt" viewBox="0 0 184.000000 184.000000" preserveAspectRatio="xMidYMid meet">
  <g transform="translate(0.000000,184.000000) scale(0.100000,-0.100000)" fill="#000000" stroke="none">
    <path d="M575 1768 c-3 -8 -4 -106 -3 -218 l3 -205 100 0 100 0 0 215 0 215
-98 3 c-73 2 -99 -1 -102 -10z m165 -48 c0 -6 -28 -10 -65 -10 -37 0 -65 4
-65 10 0 6 28 10 65 10 37 0 65 -4 65 -10z m8 -46 c-10 -9 -128 -12 -134 -3
-3 5 27 9 67 9 40 0 70 -3 67 -6z m-13 -44 c4 -6 -18 -10 -60 -10 -42 0 -64 4
-60 10 3 6 30 10 60 10 30 0 57 -4 60 -10z m-37 -173 c4 -20 -25 -34 -40 -19
-15 15 -1 44 19 40 10 -2 19 -11 21 -21z"></path>
    <path d="M832 1768 c-17 -17 -17 -309 0 -326 17 -17 439 -17 456 0 17 17 17
309 0 326 -17 17 -439 17 -456 0z m428 -148 l0 -130 -200 0 -200 0 -1 43 c-1
23 -3 76 -5 117 -2 41 -1 81 1 88 3 9 53 12 205 12 l200 0 0 -130z"></path>
    <path d="M1010 1396 c-6 -16 -18 -26 -36 -28 -15 -2 -29 -9 -32 -15 -3 -10 24
-13 112 -13 96 0 116 3 116 15 0 9 -9 15 -25 15 -18 0 -28 7 -35 25 -8 21 -16
25 -50 25 -34 0 -42 -4 -50 -24z"></path>
    <path d="M922 1218 c2 -54 7 -83 16 -86 9 -3 12 18 12 82 0 71 -3 86 -15 86
-13 0 -15 -14 -13 -82z"></path>
    <path d="M 67 1137 C 51 1126 50 1102 52 885 L 55 645 L 235 637.747 L 415 645 L 418 885 C 420 1102 419 1126 403 1137 C 379 1155 91 1155 67 1137 Z M 385 900 L 385 715 L 233 712 L 80 709 L 80 893 C 80 994 83 1080 87 1084 C 91 1087 159 1089 239 1088 L 385 1085 L 385 900 Z M 250 675 C 250 667 243 660 235 660 C 227 660 220 667 220 675 C 220 683 227 690 235 690 C 243 690 250 683 250 675 Z"></path>
    <path d="M 762 1101 C 635 1069 563 915 619 795 C 710 598 1006 644 1036 861 C 1056 1010 910 1138 762 1101 Z M 915 985 C 966 960 989 936 971 925 C 966 922 942 931 918 945 C 857 980 768 980 716 945 C 696 931 675 920 670 920 C 650 920 661 949 688 968 C 756 1016 836 1022 915 985 Z M 884 926 C 921 911 934 895 925 880 C 921 874 905.947 883.821 880.784 893.138 C 830.215 911.862 810.276 915 761.276 890 C 722.276 870 694 874 708 897 C 719 915 781 939 818 940 C 836 940 866 934 884 926 Z M 863.276 868.922 C 883.276 860.922 893.922 858.767 886 838.293 C 878.078 817.819 844.209 842.615 823.414 845.982 C 750.094 815.611 735 844 781 867 C 812 883 819.276 886.922 863.276 868.922 Z M 839.784 797.784 C 849.823 781.001 849.138 778 838.138 761.647 C 824.354 750.707 811.371 746.784 795.371 762.784 C 777.371 780.784 791 810 813 810 C 821 810 832.874 809.335 839.784 797.784 Z"></path>
    <path d="M1155 1101 c-42 -11 -70 -30 -89 -62 -14 -24 -14 -31 -1 -69 19 -54
19 -116 0 -170 -14 -39 -14 -46 0 -67 27 -41 74 -63 136 -63 93 0 151 52 169
152 20 107 -12 221 -72 260 -29 19 -103 29 -143 19z m100 -91 l49 -50 -36 -37
-37 -38 35 -29 c19 -15 34 -33 34 -39 0 -13 -90 -107 -102 -107 -4 0 -8 29 -8
65 0 36 -4 65 -8 65 -5 0 -19 -11 -32 -25 -16 -17 -27 -22 -34 -15 -7 7 2 23
28 49 l39 40 -37 35 c-20 20 -36 40 -36 46 0 18 23 11 52 -17 l28 -27 0 67 c0
37 4 67 8 67 4 0 30 -22 57 -50z"></path>
    <path d="M1220 963 c0 -36 0 -36 20 -18 19 17 19 19 4 37 -23 24 -24 24 -24
-19z"></path>
    <path d="M1220 813 c0 -36 0 -36 20 -18 19 17 19 19 4 37 -23 24 -24 24 -24
-19z"></path>
    <path d="M1578 1099 c-16 -9 -18 -30 -18 -207 0 -141 3 -201 12 -210 8 -8 47
-12 110 -12 86 0 98 2 108 19 6 12 10 95 10 201 0 106 -4 189 -10 201 -9 17
-22 19 -103 19 -51 0 -100 -5 -109 -11z m120 -26 c-10 -2 -28 -2 -40 0 -13 2
-5 4 17 4 22 1 32 -1 23 -4z m77 -175 l0 -148 -97 0 -98 0 0 150 0 151 97 -3
98 -3 0 -147z m-77 -190 c-3 -7 -11 -13 -18 -13 -7 0 -15 6 -17 13 -3 7 4 12
17 12 13 0 20 -5 18 -12z"></path>
    <path d="M464 901 c-13 -14 1 -21 41 -21 29 0 45 4 45 13 0 11 -75 18 -86 8z"></path>
    <path d="M 1420 890 C 1420 879.322 1443 880 1470 880 C 1498 880 1520 879.322 1520 890 C 1520 898.839 1498 901.419 1470 901.419 C 1443 901.419 1420 898.839 1420 890 Z"></path>
    <path d="M927 643 c-4 -3 -7 -37 -7 -75 0 -54 3 -68 15 -68 12 0 15 15 15 75
0 69 -6 86 -23 68z"></path>
    <path d="M697 453 c-4 -3 -7 -78 -7 -165 l0 -158 250 0 250 0 0 149 c0 82 -3
156 -6 165 -5 14 -36 16 -243 16 -131 0 -241 -3 -244 -7z m453 -158 l0 -135
-215 0 -215 0 0 128 c0 71 3 132 7 135 3 4 100 7 215 7 l208 0 0 -135z"></path>
    <path d="M642 88 c15 -23 18 -23 293 -26 281 -2 305 0 305 34 0 11 -25 14
-119 14 -69 0 -122 -4 -126 -10 -8 -13 -112 -13 -120 0 -4 6 -57 10 -127 10
l-120 0 14 -22z"></path>
  </g>
</svg>