<svg version="1.0" xmlns="http://www.w3.org/2000/svg" width="512.000000pt" height="512.000000pt" viewBox="0 0 512.000000 512.000000" preserveAspectRatio="xMidYMid meet">
  <path d="M 272.5 0.6 C 216.6 6.6 168.1 40.5 144 90.5 C 139.3 100.3 133.8 115.6 132.2 123.5 L 131.4 127.5 L 121.7 128.2 C 97.1 130 75.9 137 56.7 149.7 C 40.6 160.4 22.6 180.8 13.7 198.5 C 4.2 217.5 0.6 233.4 0.6 256 C 0.6 278.6 4.2 294.6 13.8 313.5 C 25.6 337.1 47.5 358.7 71.8 370.9 C 87.4 378.8 110.1 384 128.4 384 L 137 384 L 134.5 378.9 C 130.8 371.8 128 359.9 128 352 C 128 344.1 130.8 332.2 134.4 325.2 L 136.9 320.3 L 126.2 319.8 C 108.5 318.9 95.1 313.1 83 301 C 71.3 289.3 65.3 275.9 64.3 259.5 C 62.5 228.1 84.4 199.6 115.2 193.4 C 121.9 192 127 192 152.7 192.8 C 169.1 193.3 182.7 193.6 182.9 193.4 C 183.1 193.2 186.1 179.4 189.5 162.8 C 193.4 144 196.9 129.4 198.9 124.4 C 207.9 101.2 229.2 80.1 253.1 70.6 C 263.2 66.7 271.4 65 283.5 64.3 C 310 62.9 334.9 72.2 354 90.7 C 364 100.2 370.9 109.9 375.7 121 C 380.7 132.6 382.6 141.6 384.5 162 C 385.4 172.2 386.5 181.4 386.9 182.5 C 387.4 183.7 393.9 188 402.4 192.9 C 420.8 203.3 427.7 208.4 433.5 215.7 C 450.5 237.1 452.5 265.5 438.8 288.8 C 434.6 296 424.1 306.5 416.8 310.8 C 407.2 316.5 397.8 319.2 385.8 319.8 L 375.1 320.3 L 377.6 325.2 C 381.1 332.1 384 344.1 384 351.4 C 384 359.7 381.6 370.1 378.1 377.7 L 375.1 384 L 383.7 384 C 417.8 384 449.7 370.6 474.1 346.1 C 488.8 331.3 497.8 317.4 504.5 299 C 516.1 266.8 513.8 229.3 498.2 198.3 C 489.2 180.5 472.1 161.2 455.4 150 L 447.5 144.8 L 445.7 134.1 C 434.9 68.2 384.6 16.3 318.5 3 C 308.7 1 281.9 -0.4 272.5 0.6 Z" fill="#000000" stroke="none" style="stroke-width: 0.1;"></path>
  <g transform="matrix(1, 0, 0, 1, 11.156943, 3.099158)"></g>
  <g transform="matrix(-0.999797, -0.020134, 0.020133, -0.999797, 21.473861, 130.785856)" style="transform-origin: 236.873px 289.478px;">
    <path style="fill: none; stroke: rgb(0, 0, 0); stroke-width: 50; stroke-linecap: round; transform-origin: 239.928px 306.985px;" d="M 321.39 296.712 C 284.025 240.335 206.633 236.555 183.306 295.307 C 175.859 314.063 158.831 325.84 159.039 346.021" fill="#000000" stroke="none"></path>
    <polyline style="fill: none; stroke: rgb(0, 0, 0); stroke-width: 50px; stroke-linecap: round; stroke-linejoin: round;" points="161.281 240.334 157.934 350.842 244.092 310.74"></polyline>
  </g>
  <g transform="matrix(0.999943, 0.010631, -0.01063, 0.999943, 10.503156, 6.164958)" style="transform-origin: 236.873px 289.478px;">
    <path style="fill: none; stroke: rgb(0, 0, 0); stroke-width: 50; stroke-linecap: round; transform-origin: 239.928px 306.985px;" d="M 321.39 296.712 C 284.025 240.335 206.633 236.555 183.306 295.307 C 175.859 314.063 158.831 325.84 159.039 346.021" fill="#000000" stroke="none"></path>
    <polyline style="fill: none; stroke: rgb(0, 0, 0); stroke-width: 50px; stroke-linecap: round; stroke-linejoin: round;" points="161.281 240.334 157.934 350.842 244.092 310.74"></polyline>
  </g>
</svg>