<?xml version="1.0" standalone="no"?>
<!DOCTYPE svg PUBLIC "-//W3C//DTD SVG 20010904//EN"
 "http://www.w3.org/TR/2001/REC-SVG-20010904/DTD/svg10.dtd">
<svg version="1.0" xmlns="http://www.w3.org/2000/svg"
 width="512.000000pt" height="512.000000pt" viewBox="0 0 512.000000 512.000000"
 preserveAspectRatio="xMidYMid meet">

<g transform="translate(0.000000,512.000000) scale(0.100000,-0.100000)"
fill="#000000" stroke="none">
<path d="M2725 5114 c-559 -60 -1044 -399 -1285 -899 -47 -98 -102 -251 -118
-330 l-8 -40 -97 -7 c-246 -18 -458 -88 -650 -215 -161 -107 -341 -311 -430
-488 -95 -190 -131 -349 -131 -575 0 -226 36 -386 132 -575 118 -236 337 -452
580 -574 156 -79 383 -131 566 -131 l86 0 -25 51 c-37 71 -65 190 -65 269 0
79 28 198 64 268 l25 49 -107 5 c-177 9 -311 67 -432 188 -117 117 -177 251
-187 415 -18 314 201 599 509 661 67 14 118 14 375 6 164 -5 300 -8 302 -6 2
2 32 140 66 306 39 188 74 334 94 384 90 232 303 443 542 538 101 39 183 56
304 63 265 14 514 -79 705 -264 100 -95 169 -192 217 -303 50 -116 69 -206 88
-410 9 -102 20 -194 24 -205 5 -12 70 -55 155 -104 184 -104 253 -155 311
-228 170 -214 190 -498 53 -731 -42 -72 -147 -177 -220 -220 -96 -57 -190 -84
-310 -90 l-107 -5 25 -49 c35 -69 64 -189 64 -262 0 -83 -24 -187 -59 -263
l-30 -63 86 0 c341 0 660 134 904 379 147 148 237 287 304 471 116 322 93 697
-63 1007 -90 178 -261 371 -428 483 l-79 52 -18 107 c-108 659 -611 1178
-1272 1311 -98 20 -366 34 -460 24z"/>
<path d="M2480 2551 c-14 -5 -43 -17 -65 -29 -57 -29 -756 -734 -787 -792 -19
-37 -23 -60 -22 -130 0 -98 24 -156 91 -224 62 -63 133 -91 228 -91 101 0 153
26 245 120 l65 66 5 -618 5 -618 27 -51 c40 -76 70 -107 140 -145 58 -31 70
-34 148 -34 78 0 90 3 148 34 70 38 100 69 140 145 l27 51 5 618 5 618 65 -66
c92 -95 144 -120 245 -120 96 0 158 24 223 88 72 69 96 127 96 227 1 73 -3 92
-26 135 -19 35 -135 158 -400 422 -355 353 -376 372 -427 387 -57 17 -138 20
-181 7z"/>
</g>
</svg>
